<svg width="24" height="25" fill="none" xmlns="http://www.w3.org/2000/svg"><g clip-path="url(#clip0_533_456)"><path d="M19 10.5h1a1 1 0 011 1v10a1 1 0 01-1 1H4a1 1 0 01-1-1v-10a1 1 0 011-1h1v-1a7 7 0 0114 0v1zm-14 2v8h14v-8H5zm6 2h2v4h-2v-4zm6-4v-1a5 5 0 00-10 0v1h10z" fill="#060606"/><path d="M19 10.5h1a1 1 0 011 1v10a1 1 0 01-1 1H4a1 1 0 01-1-1v-10a1 1 0 011-1h1v-1a7 7 0 0114 0v1zm-14 2v8h14v-8H5zm6 2h2v4h-2v-4zm6-4v-1a5 5 0 00-10 0v1h10z" fill="#000" fill-opacity=".2"/></g><defs><clipPath id="clip0_533_456"><path fill="#fff" transform="translate(0 .5)" d="M0 0h24v24H0z"/></clipPath></defs></svg>